Model2392_S4_states																							
version=1																							
nRows=75																							
nColumns=24																							
inDegrees=yes																							
																							
"Units are S.I. units (second, meters, Newtons, ...)"																							
Angles are in degrees.																							
																							
endheader																							
time	pelvis_tilt	pelvis_list	pelvis_rotation	pelvis_tx	pelvis_ty	pelvis_tz	hip_flexion_r	hip_adduction_r	hip_rotation_r	knee_angle_r	ankle_angle_r	subtalar_angle_r	mtp_angle_r	hip_flexion_l	hip_adduction_l	hip_rotation_l	knee_angle_l	ankle_angle_l	subtalar_angle_l	mtp_angle	lumbar_extension	lumbar_bending	lumbar_rotation
0.98	0	0	0	0	0.95	0	-10.43895883	0	0	-9.65434664	12.65367779	0	0	25.54601377	0	0	-10.78671883	5.7612078	0	0	0	0	0
0.9800056	0	0	0	0	0.95	0	-10.43935731	0	0	-9.65446282	12.65364795	0	0	25.54612967	0	0	-10.78608874	5.76159479	0	0	0	0	0
0.9800112	0	0	0	0	0.95	0	-10.43975634	0	0	-9.65457789	12.65361936	0	0	25.54624549	0	0	-10.78545863	5.76198319	0	0	0	0	0
0.98002593	0	0	0	0	0.95	0	-10.44080641	0	0	-9.65487732	12.65354995	0	0	25.54654954	0	0	-10.78380281	5.76301027	0	0	0	0	0
0.98004065	0	0	0	0	0.95	0	-10.44185749	0	0	-9.65517493	12.6534878	0	0	25.5468532	0	0	-10.78214706	5.76404621	0	0	0	0	0
0.98006296	0	0	0	0	0.95	0	-10.4434512	0	0	-9.65562495	12.6534034	0	0	25.54731278	0	0	-10.77963806	5.76563159	0	0	0	0	0
0.98010091	0	0	0	0	0.95	0	-10.4461627	0	0	-9.65638953	12.65327092	0	0	25.54809304	0	0	-10.77537209	5.76836479	0	0	0	0	0
0.98017167	0	0	0	0	0.95	0	-10.45122072	0	0	-9.65781303	12.65298409	0	0	25.54954392	0	0	-10.76742156	5.7735534	0	0	0	0	0
0.98026196	0	0	0	0	0.95	0	-10.45767834	0	0	-9.65962011	12.65238869	0	0	25.55138763	0	0	-10.75728164	5.78026985	0	0	0	0	0
0.98037184	0	0	0	0	0.95	0	-10.46554366	0	0	-9.66179634	12.65113645	0	0	25.55361883	0	0	-10.74494242	5.78847182	0	0	0	0	0
0.98048173	0	0	0	0	0.95	0	-10.47341697	0	0	-9.66394239	12.64920793	0	0	25.55583524	0	0	-10.7325982	5.79661677	0	0	0	0	0
0.98065043	0	0	0	0	0.95	0	-10.48551966	0	0	-9.6671783	12.64490406	0	0	25.5592083	0	0	-10.71363071	5.80891508	0	0	0	0	0
0.98081913	0	0	0	0	0.95	0	-10.4976381	0	0	-9.67035013	12.6390602	0	0	25.56254563	0	0	-10.69464412	5.82094096	0	0	0	0	0
0.98102535	0	0	0	0	0.95	0	-10.51246891	0	0	-9.67415492	12.63001616	0	0	25.56657878	0	0	-10.67141646	5.83534162	0	0	0	0	0
0.98127682	0	0	0	0	0.95	0	-10.5305722	0	0	-9.67870776	12.61644353	0	0	25.57143184	0	0	-10.64308376	5.85263356	0	0	0	0	0
0.98165847	0	0	0	0	0.95	0	-10.55807402	0	0	-9.68547945	12.59107643	0	0	25.57867041	0	0	-10.60010005	5.87867245	0	0	0	0	0
0.98212498	0	0	0	0	0.95	0	-10.59171159	0	0	-9.693593	12.55306708	0	0	25.58732065	0	0	-10.54762962	5.91046402	0	0	0	0	0
0.98270117	0	0	0	0	0.95	0	-10.63325946	0	0	-9.70345221	12.49655848	0	0	25.59770965	0	0	-10.48294334	5.94951221	0	0	0	0	0
0.98327736	0	0	0	0	0.95	0	-10.67477415	0	0	-9.71322879	12.43067841	0	0	25.60776886	0	0	-10.41836584	5.98756141	0	0	0	0	0
0.98411466	0	0	0	0	0.95	0	-10.73496626	0	0	-9.72751212	12.32112222	0	0	25.62178794	0	0	-10.324651	6.03923928	0	0	0	0	0
0.98533525	0	0	0	0	0.95	0	-10.82220483	0	0	-9.74917533	12.14123285	0	0	25.64091792	0	0	-10.18814529	6.10255013	0	0	0	0	0
0.98684576	0	0	0	0	0.95	0	-10.92886572	0	0	-9.77892606	11.9074349	0	0	25.662378	0	0	-10.01917102	6.15424408	0	0	0	0	0
0.98866809	0	0	0	0	0.95	0	-11.05486906	0	0	-9.82186698	11.64886152	0	0	25.68497191	0	0	-9.8153215	6.17135604	0	0	0	0	0
0.98964418	0	0	0	0	0.95	0	-11.12090718	0	0	-9.84896892	11.53511336	0	0	25.69562001	0	0	-9.70638217	6.16055691	0	0	0	0	0
0.98997494	0	0	0	0	0.95	0	-11.14303589	0	0	-9.85887809	11.50170399	0	0	25.69900574	0	0	-9.66955279	6.15404337	0	0	0	0	0
0.99001601	0	0	0	0	0.95	0	-11.14577464	0	0	-9.86013493	11.49775054	0	0	25.69941845	0	0	-9.66498358	6.15314074	0	0	0	0	0
0.99005708	0	0	0	0	0.95	0	-11.1485114	0	0	-9.86139764	11.49384094	0	0	25.69982946	0	0	-9.6604153	6.1522179	0	0	0	0	0
0.99026244	0	0	0	0	0.95	0	-11.16216507	0	0	-9.86779974	11.47495797	0	0	25.70185925	0	0	-9.63758866	6.14730623	0	0	0	0	0
0.99128922	0	0	0	0	0.95	0	-11.22967262	0	0	-9.90205284	11.39773594	0	0	25.71139133	0	0	-9.52390464	6.11600079	0	0	0	0	0
0.99293768	0	0	0	0	0.95	0	-11.33538701	0	0	-9.96486585	11.33455556	0	0	25.72468135	0	0	-9.34366166	6.04862265	0	0	0	0	0
0.99458614	0	0	0	0	0.95	0	-11.4379183	0	0	-10.03676043	11.33968696	0	0	25.73578465	0	0	-9.16765576	5.97361374	0	0	0	0	0
0.99580744	0	0	0	0	0.95	0	-11.51197155	0	0	-10.09518875	11.37851986	0	0	25.74281111	0	0	-9.04097372	5.92236998	0	0	0	0	0
0.99702873	0	0	0	0	0.95	0	-11.58454005	0	0	-10.15735336	11.43828885	0	0	25.74896735	0	0	-8.91813546	5.88103891	0	0	0	0	0
0.99789647	0	0	0	0	0.95	0	-11.63527073	0	0	-10.20345454	11.48881765	0	0	25.75287422	0	0	-8.83346427	5.86001784	0	0	0	0	0
0.99876422	0	0	0	0	0.95	0	-11.68536577	0	0	-10.2509102	11.54255914	0	0	25.75642858	0	0	-8.75111196	5.84710804	0	0	0	0	0
0.99957561	0	0	0	0	0.95	0	-11.73167224	0	0	-10.29632452	11.59309896	0	0	25.75945335	0	0	-8.6762888	5.84290175	0	0	0	0	0
0.99999083	0	0	0	0	0.95	0	-11.75518017	0	0	-10.31990043	11.61831132	0	0	25.76089342	0	0	-8.63882946	5.84373625	0	0	0	0	0
1.00005354	0	0	0	0	0.95	0	-11.75871976	0	0	-10.32347882	11.62205475	0	0	25.76110464	0	0	-8.63322131	5.84403663	0	0	0	0	0
1.00011625	0	0	0	0	0.95	0	-11.76225659	0	0	-10.32706169	11.62577858	0	0	25.76131421	0	0	-8.62762607	5.84438241	0	0	0	0	0
1.00042979	0	0	0	0	0.95	0	-11.77989995	0	0	-10.3450407	11.6440719	0	0	25.7623375	0	0	-8.59984331	5.84678572	0	0	0	0	0
1.00176901	0	0	0	0	0.95	0	-11.85452889	0	0	-10.42289011	11.71400461	0	0	25.76624356	0	0	-8.48478616	5.86894119	0	0	0	0	0
1.00310822	0	0	0	0	0.95	0	-11.92805267	0	0	-10.5020979	11.7659422	0	0	25.76936503	0	0	-8.37542591	5.90696907	0	0	0	0	0
1.00444744	0	0	0	0	0.95	0	-12.00053715	0	0	-10.58234637	11.79590472	0	0	25.77162462	0	0	-8.27141626	5.9545553	0	0	0	0	0
1.00578665	0	0	0	0	0.95	0	-12.07200298	0	0	-10.66350907	11.80290953	0	0	25.77291922	0	0	-8.17230872	6.00425926	0	0	0	0	0
1.00761154	0	0	0	0	0.95	0	-12.16770301	0	0	-10.77570041	11.77946509	0	0	25.77293896	0	0	-8.04433359	6.06230305	0	0	0	0	0
1.00943643	0	0	0	0	0.95	0	-12.26132086	0	0	-10.89027335	11.72949535	0	0	25.77075362	0	0	-7.9237029	6.09602817	0	0	0	0	0
1.00991894	0	0	0	0	0.95	0	-12.28569981	0	0	-10.92107156	11.71397922	0	0	25.76979077	0	0	-7.89296647	6.0997126	0	0	0	0	0
1.01002365	0	0	0	0	0.95	0	-12.29096907	0	0	-10.92778728	11.71056096	0	0	25.76956032	0	0	-7.88635899	6.1002045	0	0	0	0	0
1.01012837	0	0	0	0	0.95	0	-12.29623054	0	0	-10.93451474	11.70713252	0	0	25.7693222	0	0	-7.879774	6.10058594	0	0	0	0	0
1.01065195	0	0	0	0	0.95	0	-12.32241939	0	0	-10.96833448	11.68996155	0	0	25.7680168	0	0	-7.8471871	6.1008332	0	0	0	0	0
1.01204481	0	0	0	0	0.95	0	-12.3910881	0	0	-11.05993266	11.64663666	0	0	25.76362665	0	0	-7.76329138	6.0882618	0	0	0	0	0
1.01343766	0	0	0	0	0.95	0	-12.45821213	0	0	-11.15423346	11.61207922	0	0	25.75796586	0	0	-7.68368243	6.05812599	0	0	0	0	0
1.01532134	0	0	0	0	0.95	0	-12.54636369	0	0	-11.28663852	11.58780697	0	0	25.7484999	0	0	-7.58360651	5.9961904	0	0	0	0	0
1.01720503	0	0	0	0	0.95	0	-12.63137736	0	0	-11.4249662	11.59356774	0	0	25.73726996	0	0	-7.49341633	5.9212651	0	0	0	0	0
1.01908871	0	0	0	0	0.95	0	-12.71325349	0	0	-11.56903786	11.6261212	0	0	25.72460479	0	0	-7.41430445	5.84587857	0	0	0	0	0
1.01953232	0	0	0	0	0.95	0	-12.73208995	0	0	-11.60373984	11.63671408	0	0	25.72144175	0	0	-7.3973852	5.82917938	0	0	0	0	0
1.01987168	0	0	0	0	0.95	0	-12.74638778	0	0	-11.63047105	11.64535681	0	0	25.718979	0	0	-7.38489385	5.81681124	0	0	0	0	0
1.01998706	0	0	0	0	0.95	0	-12.7512272	0	0	-11.6395951	11.64838615	0	0	25.71813333	0	0	-7.38073646	5.81269299	0	0	0	0	0
1.02003433	0	0	0	0	0.95	0	-12.75320678	0	0	-11.64333841	11.6496393	0	0	25.71778563	0	0	-7.37904631	5.81101892	0	0	0	0	0
1.02008161	0	0	0	0	0.95	0	-12.75518451	0	0	-11.64708467	11.65089909	0	0	25.71743724	0	0	-7.37736383	5.80935265	0	0	0	0	0
1.02031797	0	0	0	0	0.95	0	-12.76504554	0	0	-11.66585956	11.65729021	0	0	25.71568481	0	0	-7.36906659	5.80114042	0	0	0	0	0
1.02149981	0	0	0	0	0.95	0	-12.81366911	0	0	-11.76077453	11.69074021	0	0	25.70666739	0	0	-7.33047339	5.76321328	0	0	0	0	0
1.0236781	0	0	0	0	0.95	0	-12.90037185	0	0	-11.93983226	11.75118678	0	0	25.68896507	0	0	-7.27197094	5.70645603	0	0	0	0	0
1.02585639	0	0	0	0	0.95	0	-12.98333671	0	0	-12.12364565	11.79852807	0	0	25.66983512	0	0	-7.22942539	5.66034907	0	0	0	0	0
1.02803468	0	0	0	0	0.95	0	-13.06253257	0	0	-12.31193685	11.82654872	0	0	25.64914161	0	0	-7.20187579	5.61255409	0	0	0	0	0
1.02879583	0	0	0	0	0.95	0	-13.08930029	0	0	-12.37879936	11.83198275	0	0	25.64150609	0	0	-7.19556399	5.59299436	0	0	0	0	0
1.02930587	0	0	0	0	0.95	0	-13.10697066	0	0	-12.42392396	11.8345832	0	0	25.63626452	0	0	-7.19225014	5.57862702	0	0	0	0	0
1.02998608	0	0	0	0	0.95	0	-13.13020012	0	0	-12.48451328	11.83698411	0	0	25.62911265	0	0	-7.18894328	5.55763872	0	0	0	0	0
1.03000884	0	0	0	0	0.95	0	-13.13097082	0	0	-12.48654915	11.83704657	0	0	25.62887005	0	0	-7.18885423	5.55689747	0	0	0	0	0
1.0300316	0	0	0	0	0.95	0	-13.13174107	0	0	-12.48858555	11.837108	0	0	25.62862724	0	0	-7.18876658	5.55615361	0	0	0	0	0
1.03014542	0	0	0	0	0.95	0	-13.13558584	0	0	-12.49877568	11.83740022	0	0	25.62740997	0	0	-7.18834904	5.55239479	0	0	0	0	0
1.0307145	0	0	0	0	0.95	0	-13.15464621	0	0	-12.54993051	11.83852934	0	0	25.62124267	0	0	-7.1867759	5.53258549	0	0	0	0	0
1.03190246	0	0	0	0	0.95	0	-13.19355251	0	0	-12.65782589	11.83953996	0	0	25.60792939	0	0	-7.18621622	5.48555046	0	0	0	0	0
1.03348817	0	0	0	0	0.95	0	-13.24361337	0	0	-12.80418137	11.83885056	0	0	25.58924821	0	0	-7.19117095	5.41090264	0	0	0	0	0
1.03565947	0	0	0	0	0.95	0	-13.30867159	0	0	-13.00880128	11.83355238	0	0	25.56209699	0	0	-7.20874498	5.29063406	0	0	0	0	0
